<mxfile host="app.diagrams.net" agent="Mozilla/5.0 (Windows NT 10.0; Win64; x64) AppleWebKit/537.36 (KHTML, like Gecko) Chrome/133.0.0.0 Safari/537.36" version="26.0.15">
  <diagram name="Página-1" id="kUxZZfzp38gOaUV-1Kbu">
    <mxGraphModel dx="1647" dy="848" grid="1" gridSize="10" guides="1" tooltips="1" connect="1" arrows="1" fold="1" page="1" pageScale="1" pageWidth="827" pageHeight="1169" math="0" shadow="0">
      <root>
        <mxCell id="0" />
        <mxCell id="1" parent="0" />
        <mxCell id="FgY2kKSXAvbaPuqCK75M-28" value="" style="edgeStyle=orthogonalEdgeStyle;rounded=0;orthogonalLoop=1;jettySize=auto;html=1;" edge="1" parent="1" source="FgY2kKSXAvbaPuqCK75M-1" target="FgY2kKSXAvbaPuqCK75M-27">
          <mxGeometry relative="1" as="geometry" />
        </mxCell>
        <mxCell id="FgY2kKSXAvbaPuqCK75M-1" value="&lt;div&gt;INICIO&lt;/div&gt;" style="ellipse;whiteSpace=wrap;html=1;" vertex="1" parent="1">
          <mxGeometry x="330" y="60" width="120" height="80" as="geometry" />
        </mxCell>
        <mxCell id="FgY2kKSXAvbaPuqCK75M-27" value="PESO" style="shape=parallelogram;perimeter=parallelogramPerimeter;whiteSpace=wrap;html=1;fixedSize=1;" vertex="1" parent="1">
          <mxGeometry x="315" y="179" width="150" height="60" as="geometry" />
        </mxCell>
        <mxCell id="FgY2kKSXAvbaPuqCK75M-35" value="" style="edgeStyle=orthogonalEdgeStyle;rounded=0;orthogonalLoop=1;jettySize=auto;html=1;" edge="1" parent="1">
          <mxGeometry relative="1" as="geometry">
            <mxPoint x="390" y="240" as="sourcePoint" />
            <mxPoint x="390" y="287" as="targetPoint" />
          </mxGeometry>
        </mxCell>
        <mxCell id="FgY2kKSXAvbaPuqCK75M-43" value="" style="edgeStyle=orthogonalEdgeStyle;rounded=0;orthogonalLoop=1;jettySize=auto;html=1;" edge="1" parent="1" source="FgY2kKSXAvbaPuqCK75M-36" target="FgY2kKSXAvbaPuqCK75M-42">
          <mxGeometry relative="1" as="geometry" />
        </mxCell>
        <mxCell id="FgY2kKSXAvbaPuqCK75M-36" value="ALTURA" style="shape=parallelogram;perimeter=parallelogramPerimeter;whiteSpace=wrap;html=1;fixedSize=1;" vertex="1" parent="1">
          <mxGeometry x="280" y="288" width="190" height="60" as="geometry" />
        </mxCell>
        <mxCell id="FgY2kKSXAvbaPuqCK75M-52" value="" style="edgeStyle=orthogonalEdgeStyle;rounded=0;orthogonalLoop=1;jettySize=auto;html=1;" edge="1" parent="1" source="FgY2kKSXAvbaPuqCK75M-38" target="FgY2kKSXAvbaPuqCK75M-51">
          <mxGeometry relative="1" as="geometry" />
        </mxCell>
        <mxCell id="FgY2kKSXAvbaPuqCK75M-38" value="IMC" style="whiteSpace=wrap;html=1;" vertex="1" parent="1">
          <mxGeometry x="278" y="500" width="195" height="60" as="geometry" />
        </mxCell>
        <mxCell id="FgY2kKSXAvbaPuqCK75M-45" value="" style="edgeStyle=orthogonalEdgeStyle;rounded=0;orthogonalLoop=1;jettySize=auto;html=1;" edge="1" parent="1" source="FgY2kKSXAvbaPuqCK75M-42" target="FgY2kKSXAvbaPuqCK75M-38">
          <mxGeometry relative="1" as="geometry" />
        </mxCell>
        <mxCell id="FgY2kKSXAvbaPuqCK75M-42" value="IMC=PESO / (ALTURA * ALTURA)" style="shape=parallelogram;perimeter=parallelogramPerimeter;whiteSpace=wrap;html=1;fixedSize=1;" vertex="1" parent="1">
          <mxGeometry x="260" y="390" width="230" height="60" as="geometry" />
        </mxCell>
        <mxCell id="FgY2kKSXAvbaPuqCK75M-54" value="" style="edgeStyle=orthogonalEdgeStyle;rounded=0;orthogonalLoop=1;jettySize=auto;html=1;" edge="1" parent="1" source="FgY2kKSXAvbaPuqCK75M-55" target="FgY2kKSXAvbaPuqCK75M-53">
          <mxGeometry relative="1" as="geometry" />
        </mxCell>
        <mxCell id="FgY2kKSXAvbaPuqCK75M-57" value="" style="edgeStyle=orthogonalEdgeStyle;rounded=0;orthogonalLoop=1;jettySize=auto;html=1;" edge="1" parent="1" source="FgY2kKSXAvbaPuqCK75M-51" target="FgY2kKSXAvbaPuqCK75M-56">
          <mxGeometry relative="1" as="geometry" />
        </mxCell>
        <mxCell id="FgY2kKSXAvbaPuqCK75M-58" value="NÃO&lt;div&gt;&lt;br&gt;&lt;/div&gt;" style="edgeLabel;html=1;align=center;verticalAlign=middle;resizable=0;points=[];fontSize=21;" vertex="1" connectable="0" parent="FgY2kKSXAvbaPuqCK75M-57">
          <mxGeometry x="-0.14" y="5" relative="1" as="geometry">
            <mxPoint x="-44" y="12" as="offset" />
          </mxGeometry>
        </mxCell>
        <mxCell id="FgY2kKSXAvbaPuqCK75M-51" value="IMC&amp;lt;18,5" style="rhombus;whiteSpace=wrap;html=1;" vertex="1" parent="1">
          <mxGeometry x="610.5" y="470" width="129.5" height="120" as="geometry" />
        </mxCell>
        <mxCell id="FgY2kKSXAvbaPuqCK75M-62" value="" style="edgeStyle=orthogonalEdgeStyle;rounded=0;orthogonalLoop=1;jettySize=auto;html=1;" edge="1" parent="1" source="FgY2kKSXAvbaPuqCK75M-53" target="FgY2kKSXAvbaPuqCK75M-61">
          <mxGeometry relative="1" as="geometry" />
        </mxCell>
        <mxCell id="FgY2kKSXAvbaPuqCK75M-53" value="" style="strokeWidth=2;html=1;shape=mxgraph.flowchart.document2;whiteSpace=wrap;size=0.25;" vertex="1" parent="1">
          <mxGeometry x="827" y="500" width="100" height="60" as="geometry" />
        </mxCell>
        <mxCell id="FgY2kKSXAvbaPuqCK75M-68" value="" style="edgeStyle=orthogonalEdgeStyle;rounded=0;orthogonalLoop=1;jettySize=auto;html=1;" edge="1" parent="1" source="FgY2kKSXAvbaPuqCK75M-56" target="FgY2kKSXAvbaPuqCK75M-64">
          <mxGeometry relative="1" as="geometry" />
        </mxCell>
        <mxCell id="FgY2kKSXAvbaPuqCK75M-72" value="" style="edgeStyle=orthogonalEdgeStyle;rounded=0;orthogonalLoop=1;jettySize=auto;html=1;" edge="1" parent="1" source="FgY2kKSXAvbaPuqCK75M-56" target="FgY2kKSXAvbaPuqCK75M-71">
          <mxGeometry relative="1" as="geometry" />
        </mxCell>
        <mxCell id="FgY2kKSXAvbaPuqCK75M-56" value="IMC&amp;gt;18,5" style="rhombus;whiteSpace=wrap;html=1;" vertex="1" parent="1">
          <mxGeometry x="610.5" y="670" width="129.5" height="120" as="geometry" />
        </mxCell>
        <mxCell id="FgY2kKSXAvbaPuqCK75M-61" value="FIM&lt;div&gt;&lt;br&gt;&lt;/div&gt;" style="ellipse;whiteSpace=wrap;html=1;strokeWidth=2;" vertex="1" parent="1">
          <mxGeometry x="1017" y="490" width="80" height="80" as="geometry" />
        </mxCell>
        <mxCell id="FgY2kKSXAvbaPuqCK75M-55" value="&lt;div&gt;&lt;div&gt;SIM&lt;div&gt;&lt;br&gt;&lt;/div&gt;&lt;/div&gt;&lt;/div&gt;" style="text;html=1;align=center;verticalAlign=middle;resizable=0;points=[];autosize=1;strokeColor=none;fillColor=none;spacing=17;fontSize=21;" vertex="1" parent="1">
          <mxGeometry x="730" y="458" width="90" height="90" as="geometry" />
        </mxCell>
        <mxCell id="FgY2kKSXAvbaPuqCK75M-70" value="" style="edgeStyle=orthogonalEdgeStyle;rounded=0;orthogonalLoop=1;jettySize=auto;html=1;" edge="1" parent="1" source="FgY2kKSXAvbaPuqCK75M-64" target="FgY2kKSXAvbaPuqCK75M-69">
          <mxGeometry relative="1" as="geometry" />
        </mxCell>
        <mxCell id="FgY2kKSXAvbaPuqCK75M-64" value="" style="strokeWidth=2;html=1;shape=mxgraph.flowchart.document2;whiteSpace=wrap;size=0.25;" vertex="1" parent="1">
          <mxGeometry x="837" y="698" width="100" height="60" as="geometry" />
        </mxCell>
        <mxCell id="FgY2kKSXAvbaPuqCK75M-79" value="" style="edgeStyle=orthogonalEdgeStyle;rounded=0;orthogonalLoop=1;jettySize=auto;html=1;" edge="1" parent="1" source="FgY2kKSXAvbaPuqCK75M-65" target="FgY2kKSXAvbaPuqCK75M-78">
          <mxGeometry relative="1" as="geometry" />
        </mxCell>
        <mxCell id="FgY2kKSXAvbaPuqCK75M-65" value="" style="strokeWidth=2;html=1;shape=mxgraph.flowchart.document2;whiteSpace=wrap;size=0.25;" vertex="1" parent="1">
          <mxGeometry x="837" y="865" width="100" height="60" as="geometry" />
        </mxCell>
        <mxCell id="FgY2kKSXAvbaPuqCK75M-80" value="" style="edgeStyle=orthogonalEdgeStyle;rounded=0;orthogonalLoop=1;jettySize=auto;html=1;" edge="1" parent="1" source="FgY2kKSXAvbaPuqCK75M-66" target="FgY2kKSXAvbaPuqCK75M-77">
          <mxGeometry relative="1" as="geometry" />
        </mxCell>
        <mxCell id="FgY2kKSXAvbaPuqCK75M-66" value="" style="strokeWidth=2;html=1;shape=mxgraph.flowchart.document2;whiteSpace=wrap;size=0.25;" vertex="1" parent="1">
          <mxGeometry x="837" y="1031" width="100" height="60" as="geometry" />
        </mxCell>
        <mxCell id="FgY2kKSXAvbaPuqCK75M-67" value="" style="edgeStyle=orthogonalEdgeStyle;rounded=0;orthogonalLoop=1;jettySize=auto;html=1;" edge="1" parent="1">
          <mxGeometry relative="1" as="geometry">
            <mxPoint x="735" y="530" as="sourcePoint" />
            <mxPoint x="825" y="530" as="targetPoint" />
          </mxGeometry>
        </mxCell>
        <mxCell id="FgY2kKSXAvbaPuqCK75M-69" value="" style="ellipse;whiteSpace=wrap;html=1;strokeWidth=2;" vertex="1" parent="1">
          <mxGeometry x="1029" y="689" width="80" height="80" as="geometry" />
        </mxCell>
        <mxCell id="FgY2kKSXAvbaPuqCK75M-74" value="" style="edgeStyle=orthogonalEdgeStyle;rounded=0;orthogonalLoop=1;jettySize=auto;html=1;" edge="1" parent="1" source="FgY2kKSXAvbaPuqCK75M-71" target="FgY2kKSXAvbaPuqCK75M-73">
          <mxGeometry relative="1" as="geometry" />
        </mxCell>
        <mxCell id="FgY2kKSXAvbaPuqCK75M-75" value="" style="edgeStyle=orthogonalEdgeStyle;rounded=0;orthogonalLoop=1;jettySize=auto;html=1;" edge="1" parent="1" source="FgY2kKSXAvbaPuqCK75M-71" target="FgY2kKSXAvbaPuqCK75M-65">
          <mxGeometry relative="1" as="geometry" />
        </mxCell>
        <mxCell id="FgY2kKSXAvbaPuqCK75M-71" value="IMC&amp;gt;25&lt;div&gt;&lt;br&gt;&lt;/div&gt;" style="rhombus;whiteSpace=wrap;html=1;" vertex="1" parent="1">
          <mxGeometry x="610.5" y="835" width="129.5" height="120" as="geometry" />
        </mxCell>
        <mxCell id="FgY2kKSXAvbaPuqCK75M-76" value="" style="edgeStyle=orthogonalEdgeStyle;rounded=0;orthogonalLoop=1;jettySize=auto;html=1;" edge="1" parent="1" source="FgY2kKSXAvbaPuqCK75M-73" target="FgY2kKSXAvbaPuqCK75M-66">
          <mxGeometry relative="1" as="geometry" />
        </mxCell>
        <mxCell id="FgY2kKSXAvbaPuqCK75M-73" value="IMC&amp;lt;25&lt;div&gt;&lt;br&gt;&lt;/div&gt;" style="rhombus;whiteSpace=wrap;html=1;" vertex="1" parent="1">
          <mxGeometry x="610.5" y="1001" width="129.5" height="120" as="geometry" />
        </mxCell>
        <mxCell id="FgY2kKSXAvbaPuqCK75M-77" value="" style="ellipse;whiteSpace=wrap;html=1;" vertex="1" parent="1">
          <mxGeometry x="1029" y="1021" width="80" height="80" as="geometry" />
        </mxCell>
        <mxCell id="FgY2kKSXAvbaPuqCK75M-78" value="" style="ellipse;whiteSpace=wrap;html=1;strokeWidth=2;" vertex="1" parent="1">
          <mxGeometry x="1027" y="855" width="80" height="80" as="geometry" />
        </mxCell>
        <mxCell id="FgY2kKSXAvbaPuqCK75M-81" value="NÃO&lt;div&gt;&lt;br&gt;&lt;/div&gt;" style="edgeLabel;html=1;align=center;verticalAlign=middle;resizable=0;points=[];fontSize=21;" vertex="1" connectable="0" parent="1">
          <mxGeometry x="630" y="820" as="geometry" />
        </mxCell>
        <mxCell id="FgY2kKSXAvbaPuqCK75M-82" value="NÃO&lt;div&gt;&lt;br&gt;&lt;/div&gt;" style="edgeLabel;html=1;align=center;verticalAlign=middle;resizable=0;points=[];fontSize=21;" vertex="1" connectable="0" parent="1">
          <mxGeometry x="620" y="990" as="geometry" />
        </mxCell>
        <mxCell id="FgY2kKSXAvbaPuqCK75M-83" value="&lt;div&gt;&lt;div&gt;SIM&lt;div&gt;&lt;br&gt;&lt;/div&gt;&lt;/div&gt;&lt;/div&gt;" style="text;html=1;align=center;verticalAlign=middle;resizable=0;points=[];autosize=1;strokeColor=none;fillColor=none;spacing=17;fontSize=21;" vertex="1" parent="1">
          <mxGeometry x="730" y="668" width="90" height="90" as="geometry" />
        </mxCell>
        <mxCell id="FgY2kKSXAvbaPuqCK75M-84" value="&lt;div&gt;&lt;div&gt;SIM&lt;div&gt;&lt;br&gt;&lt;/div&gt;&lt;/div&gt;&lt;/div&gt;" style="text;html=1;align=center;verticalAlign=middle;resizable=0;points=[];autosize=1;strokeColor=none;fillColor=none;spacing=17;fontSize=21;" vertex="1" parent="1">
          <mxGeometry x="730" y="835" width="90" height="90" as="geometry" />
        </mxCell>
        <mxCell id="FgY2kKSXAvbaPuqCK75M-85" value="&lt;div&gt;&lt;div&gt;SIM&lt;div&gt;&lt;br&gt;&lt;/div&gt;&lt;/div&gt;&lt;/div&gt;" style="text;html=1;align=center;verticalAlign=middle;resizable=0;points=[];autosize=1;strokeColor=none;fillColor=none;spacing=17;fontSize=21;" vertex="1" parent="1">
          <mxGeometry x="730" y="990" width="90" height="90" as="geometry" />
        </mxCell>
        <mxCell id="FgY2kKSXAvbaPuqCK75M-86" value="FIM&lt;div&gt;&lt;br&gt;&lt;/div&gt;" style="ellipse;whiteSpace=wrap;html=1;strokeWidth=2;" vertex="1" parent="1">
          <mxGeometry x="1029" y="690" width="80" height="80" as="geometry" />
        </mxCell>
        <mxCell id="FgY2kKSXAvbaPuqCK75M-87" value="FIM&lt;div&gt;&lt;br&gt;&lt;/div&gt;" style="ellipse;whiteSpace=wrap;html=1;strokeWidth=2;" vertex="1" parent="1">
          <mxGeometry x="1027" y="855" width="80" height="80" as="geometry" />
        </mxCell>
        <mxCell id="FgY2kKSXAvbaPuqCK75M-88" value="FIM&lt;div&gt;&lt;br&gt;&lt;/div&gt;" style="ellipse;whiteSpace=wrap;html=1;strokeWidth=2;" vertex="1" parent="1">
          <mxGeometry x="1029" y="1021" width="80" height="80" as="geometry" />
        </mxCell>
        <mxCell id="FgY2kKSXAvbaPuqCK75M-89" value="IMC&amp;gt;30" style="rhombus;whiteSpace=wrap;html=1;" vertex="1" parent="1">
          <mxGeometry x="610.5" y="1160" width="129.5" height="120" as="geometry" />
        </mxCell>
        <mxCell id="FgY2kKSXAvbaPuqCK75M-90" value="IMC&amp;gt;40" style="rhombus;whiteSpace=wrap;html=1;" vertex="1" parent="1">
          <mxGeometry x="610.5" y="1310" width="129.5" height="120" as="geometry" />
        </mxCell>
      </root>
    </mxGraphModel>
  </diagram>
</mxfile>
